<mxfile host="app.diagrams.net" modified="2021-04-06T01:57:07.433Z" agent="5.0 (Windows NT 10.0; Win64; x64) AppleWebKit/537.36 (KHTML, like Gecko) Chrome/89.0.4389.114 Safari/537.36" etag="eNo91PjVL5_IjxRwUSvz" version="14.5.7" type="github">
  <diagram id="RjWgdgpN9BoGPJ0XTJhr" name="Page-1">
    <mxGraphModel dx="813" dy="435" grid="0" gridSize="10" guides="1" tooltips="1" connect="1" arrows="1" fold="1" page="0" pageScale="1" pageWidth="827" pageHeight="1169" math="0" shadow="0">
      <root>
        <mxCell id="0" />
        <mxCell id="1" parent="0" />
        <mxCell id="A2yQczKmEiPl7K-rcjwo-21" value="" style="rounded=0;whiteSpace=wrap;html=1;strokeWidth=2;" parent="1" vertex="1">
          <mxGeometry x="150" y="350" width="450" height="160" as="geometry" />
        </mxCell>
        <mxCell id="A2yQczKmEiPl7K-rcjwo-1" value="帧状态信息表" style="rounded=0;whiteSpace=wrap;html=1;strokeWidth=2;" parent="1" vertex="1">
          <mxGeometry x="150" y="255" width="110" height="50" as="geometry" />
        </mxCell>
        <mxCell id="A2yQczKmEiPl7K-rcjwo-3" value="" style="shape=flexArrow;endArrow=classic;html=1;strokeWidth=2;" parent="1" edge="1">
          <mxGeometry width="50" height="50" relative="1" as="geometry">
            <mxPoint x="275" y="279.71" as="sourcePoint" />
            <mxPoint x="325" y="279.71" as="targetPoint" />
          </mxGeometry>
        </mxCell>
        <mxCell id="A2yQczKmEiPl7K-rcjwo-4" value="" style="shape=mxgraph.bpmn.service_task;html=1;outlineConnect=0;strokeWidth=2;" parent="1" vertex="1">
          <mxGeometry x="280" y="220" width="40" height="40" as="geometry" />
        </mxCell>
        <mxCell id="A2yQczKmEiPl7K-rcjwo-5" value="&lt;span style=&quot;color: rgb(0 , 0 , 0) ; font-family: &amp;#34;helvetica&amp;#34; ; font-size: 12px ; font-style: normal ; font-weight: 400 ; letter-spacing: normal ; text-align: center ; text-indent: 0px ; text-transform: none ; word-spacing: 0px ; background-color: rgb(248 , 249 , 250) ; display: inline ; float: none&quot;&gt;P4C&lt;/span&gt;" style="text;whiteSpace=wrap;html=1;" parent="1" vertex="1">
          <mxGeometry x="291" y="190" width="100" height="30" as="geometry" />
        </mxCell>
        <mxCell id="A2yQczKmEiPl7K-rcjwo-6" value="P4 JSON" style="rounded=0;whiteSpace=wrap;html=1;strokeWidth=2;" parent="1" vertex="1">
          <mxGeometry x="341" y="255" width="110" height="50" as="geometry" />
        </mxCell>
        <mxCell id="A2yQczKmEiPl7K-rcjwo-8" value="&lt;div style=&quot;text-align: center&quot;&gt;&lt;span&gt;&lt;font face=&quot;helvetica&quot;&gt;simple switch&lt;/font&gt;&lt;/span&gt;&lt;/div&gt;" style="text;whiteSpace=wrap;html=1;strokeWidth=2;" parent="1" vertex="1">
          <mxGeometry x="160" y="350" width="100" height="30" as="geometry" />
        </mxCell>
        <mxCell id="A2yQczKmEiPl7K-rcjwo-10" value="" style="shape=flexArrow;endArrow=classic;html=1;strokeWidth=2;" parent="1" edge="1">
          <mxGeometry width="50" height="50" relative="1" as="geometry">
            <mxPoint x="395.96" y="310" as="sourcePoint" />
            <mxPoint x="395.96" y="350" as="targetPoint" />
          </mxGeometry>
        </mxCell>
        <mxCell id="A2yQczKmEiPl7K-rcjwo-11" value="帧状态信息表" style="rounded=0;whiteSpace=wrap;html=1;strokeWidth=2;" parent="1" vertex="1">
          <mxGeometry x="315" y="380" width="101" height="50" as="geometry" />
        </mxCell>
        <mxCell id="A2yQczKmEiPl7K-rcjwo-14" value="数据帧" style="rounded=0;whiteSpace=wrap;html=1;strokeWidth=2;" parent="1" vertex="1">
          <mxGeometry x="386" y="420" width="50" height="50" as="geometry" />
        </mxCell>
        <mxCell id="A2yQczKmEiPl7K-rcjwo-15" value="帧状态信息表" style="rounded=0;whiteSpace=wrap;html=1;strokeWidth=2;" parent="1" vertex="1">
          <mxGeometry x="455" y="380" width="101" height="50" as="geometry" />
        </mxCell>
        <mxCell id="A2yQczKmEiPl7K-rcjwo-13" value="数据帧" style="rounded=0;whiteSpace=wrap;html=1;strokeWidth=2;" parent="1" vertex="1">
          <mxGeometry x="525" y="420" width="50" height="50" as="geometry" />
        </mxCell>
        <mxCell id="A2yQczKmEiPl7K-rcjwo-16" value="" style="shape=flexArrow;endArrow=classic;startArrow=classic;html=1;width=2.684563758389262;startSize=2.734228187919463;startWidth=6.242962028737444;endSize=2.734228187919463;endWidth=6.242962028737444;exitX=0.25;exitY=1;exitDx=0;exitDy=0;entryX=0.013;entryY=0.593;entryDx=0;entryDy=0;entryPerimeter=0;strokeWidth=2;" parent="1" source="A2yQczKmEiPl7K-rcjwo-11" target="A2yQczKmEiPl7K-rcjwo-14" edge="1">
          <mxGeometry width="50" height="50" relative="1" as="geometry">
            <mxPoint x="225" y="520" as="sourcePoint" />
            <mxPoint x="265" y="520" as="targetPoint" />
            <Array as="points">
              <mxPoint x="340" y="450" />
            </Array>
          </mxGeometry>
        </mxCell>
        <mxCell id="A2yQczKmEiPl7K-rcjwo-18" value="" style="shape=flexArrow;endArrow=classic;startArrow=classic;html=1;width=2.684563758389262;startSize=2.734228187919463;startWidth=6.242962028737444;endSize=2.734228187919463;endWidth=6.242962028737444;exitX=0.25;exitY=1;exitDx=0;exitDy=0;entryX=0.013;entryY=0.593;entryDx=0;entryDy=0;entryPerimeter=0;strokeWidth=2;" parent="1" edge="1">
          <mxGeometry width="50" height="50" relative="1" as="geometry">
            <mxPoint x="478.6" y="430" as="sourcePoint" />
            <mxPoint x="525" y="449.6500000000001" as="targetPoint" />
            <Array as="points">
              <mxPoint x="478.35" y="450" />
            </Array>
          </mxGeometry>
        </mxCell>
        <mxCell id="A2yQczKmEiPl7K-rcjwo-19" value="&lt;font style=&quot;font-size: 11px&quot;&gt;&lt;span lang=&quot;EN-US&quot; style=&quot;font-family: &amp;#34;times new roman&amp;#34; , serif ; font-size: 11px&quot;&gt;get_field&lt;br style=&quot;font-size: 11px&quot;&gt;&lt;/span&gt;&lt;span lang=&quot;EN-US&quot; style=&quot;font-family: &amp;#34;times new roman&amp;#34; , serif ; font-size: 11px&quot;&gt;set_field&lt;br style=&quot;font-size: 11px&quot;&gt;&lt;/span&gt;&lt;span lang=&quot;EN-US&quot; style=&quot;font-family: &amp;#34;times new roman&amp;#34; , serif ; font-size: 11px&quot;&gt;has_field&lt;/span&gt;&lt;/font&gt;" style="text;whiteSpace=wrap;html=1;strokeWidth=2;" parent="1" vertex="1">
          <mxGeometry x="316" y="450" width="100" height="30" as="geometry" />
        </mxCell>
        <mxCell id="A2yQczKmEiPl7K-rcjwo-20" value="&lt;font style=&quot;font-size: 11px&quot;&gt;&lt;span lang=&quot;EN-US&quot; style=&quot;font-family: &amp;#34;times new roman&amp;#34; , serif ; font-size: 11px&quot;&gt;get_field&lt;br style=&quot;font-size: 11px&quot;&gt;&lt;/span&gt;&lt;span lang=&quot;EN-US&quot; style=&quot;font-family: &amp;#34;times new roman&amp;#34; , serif ; font-size: 11px&quot;&gt;set_field&lt;br style=&quot;font-size: 11px&quot;&gt;&lt;/span&gt;&lt;span lang=&quot;EN-US&quot; style=&quot;font-family: &amp;#34;times new roman&amp;#34; , serif ; font-size: 11px&quot;&gt;has_field&lt;/span&gt;&lt;/font&gt;" style="text;whiteSpace=wrap;html=1;strokeWidth=2;" parent="1" vertex="1">
          <mxGeometry x="465" y="450" width="100" height="30" as="geometry" />
        </mxCell>
        <mxCell id="A2yQczKmEiPl7K-rcjwo-22" value="P4 Runtime" style="rounded=0;whiteSpace=wrap;html=1;strokeWidth=2;" parent="1" vertex="1">
          <mxGeometry x="341" y="350" width="110" height="20" as="geometry" />
        </mxCell>
        <mxCell id="ODhwlcg_6zYdrKhiivPo-1" value="帧状态信息表" style="rounded=0;whiteSpace=wrap;html=1;strokeWidth=2;" vertex="1" parent="1">
          <mxGeometry x="175" y="380" width="101" height="50" as="geometry" />
        </mxCell>
        <mxCell id="ODhwlcg_6zYdrKhiivPo-2" value="数据帧" style="rounded=0;whiteSpace=wrap;html=1;strokeWidth=2;" vertex="1" parent="1">
          <mxGeometry x="245" y="420" width="50" height="50" as="geometry" />
        </mxCell>
        <mxCell id="ODhwlcg_6zYdrKhiivPo-3" value="" style="shape=flexArrow;endArrow=classic;startArrow=classic;html=1;width=2.684563758389262;startSize=2.734228187919463;startWidth=6.242962028737444;endSize=2.734228187919463;endWidth=6.242962028737444;exitX=0.25;exitY=1;exitDx=0;exitDy=0;entryX=0.013;entryY=0.593;entryDx=0;entryDy=0;entryPerimeter=0;strokeWidth=2;" edge="1" parent="1">
          <mxGeometry width="50" height="50" relative="1" as="geometry">
            <mxPoint x="198.5999999999999" y="430" as="sourcePoint" />
            <mxPoint x="245" y="449.6500000000002" as="targetPoint" />
            <Array as="points">
              <mxPoint x="198.35000000000002" y="450" />
            </Array>
          </mxGeometry>
        </mxCell>
        <mxCell id="ODhwlcg_6zYdrKhiivPo-4" value="&lt;font style=&quot;font-size: 11px&quot;&gt;&lt;span lang=&quot;EN-US&quot; style=&quot;font-family: &amp;#34;times new roman&amp;#34; , serif ; font-size: 11px&quot;&gt;get_field&lt;br style=&quot;font-size: 11px&quot;&gt;&lt;/span&gt;&lt;span lang=&quot;EN-US&quot; style=&quot;font-family: &amp;#34;times new roman&amp;#34; , serif ; font-size: 11px&quot;&gt;set_field&lt;br style=&quot;font-size: 11px&quot;&gt;&lt;/span&gt;&lt;span lang=&quot;EN-US&quot; style=&quot;font-family: &amp;#34;times new roman&amp;#34; , serif ; font-size: 11px&quot;&gt;has_field&lt;/span&gt;&lt;/font&gt;" style="text;whiteSpace=wrap;html=1;strokeWidth=2;" vertex="1" parent="1">
          <mxGeometry x="185" y="450" width="100" height="30" as="geometry" />
        </mxCell>
      </root>
    </mxGraphModel>
  </diagram>
</mxfile>
